<svg width="18" height="18" viewBox="0 0 18 18" fill="none" xmlns="http://www.w3.org/2000/svg">
<path d="M2.98206 7.38C3.01223 7.0041 3.18287 6.65336 3.46001 6.39763C3.73715 6.14189 4.10045 5.99992 4.47756 6H13.5211C13.8982 5.99992 14.2615 6.14189 14.5386 6.39763C14.8157 6.65336 14.9864 7.0041 15.0166 7.38L15.6188 14.88C15.6354 15.0864 15.609 15.294 15.5414 15.4897C15.4738 15.6854 15.3664 15.865 15.226 16.0172C15.0856 16.1694 14.9152 16.2908 14.7256 16.3739C14.5359 16.457 14.3311 16.4999 14.1241 16.5H3.87456C3.6675 16.4999 3.4627 16.457 3.27304 16.3739C3.08339 16.2908 2.91299 16.1694 2.77258 16.0172C2.63217 15.865 2.52478 15.6854 2.45719 15.4897C2.38959 15.294 2.36324 15.0864 2.37981 14.88L2.98206 7.38V7.38Z" stroke="white" stroke-width="2" stroke-linecap="round" stroke-linejoin="round"/>
<path d="M12 8.25V4.5C12 3.70435 11.6839 2.94129 11.1213 2.37868C10.5587 1.81607 9.79565 1.5 9 1.5C8.20435 1.5 7.44129 1.81607 6.87868 2.37868C6.31607 2.94129 6 3.70435 6 4.5V8.25" stroke="white" stroke-width="2" stroke-linecap="round" stroke-linejoin="round"/>
</svg>
