<svg width="16" height="16" viewBox="0 0 16 16" fill="none" xmlns="http://www.w3.org/2000/svg">
<g clip-path="url(#clip0_10_202)">
<path fill-rule="evenodd" clip-rule="evenodd" d="M0.666016 1.89208C0.666016 1.5671 0.795113 1.25544 1.02491 1.02564C1.2547 0.795847 1.56637 0.66675 1.89135 0.66675H14.106C14.2671 0.666487 14.4266 0.697992 14.5754 0.759461C14.7243 0.82093 14.8596 0.911156 14.9735 1.02497C15.0875 1.13879 15.1778 1.27397 15.2395 1.42276C15.3011 1.57155 15.3328 1.73103 15.3327 1.89208V14.1067C15.3329 14.2678 15.3013 14.4274 15.2397 14.5762C15.1782 14.7251 15.0879 14.8604 14.974 14.9743C14.8602 15.0882 14.7249 15.1786 14.5761 15.2402C14.4273 15.3018 14.2678 15.3335 14.1067 15.3334H1.89135C1.73038 15.3334 1.57099 15.3017 1.42228 15.2401C1.27357 15.1785 1.13846 15.0881 1.02467 14.9743C0.91088 14.8604 0.820637 14.7253 0.759097 14.5765C0.697558 14.4278 0.665928 14.2684 0.666016 14.1074V1.89208ZM6.47135 6.25875H8.45735V7.25608C8.74402 6.68275 9.47735 6.16675 10.5793 6.16675C12.692 6.16675 13.1927 7.30875 13.1927 9.40408V13.2854H11.0547V9.88142C11.0547 8.68808 10.768 8.01475 10.04 8.01475C9.03002 8.01475 8.61002 8.74075 8.61002 9.88142V13.2854H6.47135V6.25875ZM2.80468 13.1941H4.94335V6.16675H2.80468V13.1934V13.1941ZM5.24935 3.87475C5.25338 4.05786 5.2208 4.23994 5.15351 4.41029C5.08622 4.58064 4.98558 4.73584 4.8575 4.86677C4.72942 4.9977 4.57648 5.10173 4.40765 5.17275C4.23882 5.24378 4.05751 5.28036 3.87435 5.28036C3.69119 5.28036 3.50988 5.24378 3.34105 5.17275C3.17222 5.10173 3.01927 4.9977 2.89119 4.86677C2.76312 4.73584 2.66248 4.58064 2.59519 4.41029C2.5279 4.23994 2.49532 4.05786 2.49935 3.87475C2.50726 3.51532 2.65561 3.17328 2.91261 2.92187C3.16961 2.67047 3.51483 2.52969 3.87435 2.52969C4.23387 2.52969 4.57909 2.67047 4.83609 2.92187C5.09309 3.17328 5.24143 3.51532 5.24935 3.87475Z" fill="#F8F8F8"/>
</g>
<defs>
<clipPath id="clip0_10_202">
<rect width="16" height="16" fill="white"/>
</clipPath>
</defs>
</svg>
