<?xml version="1.0" encoding="utf-8"?><svg viewBox="0 0 20 20" xmlns="http://www.w3.org/2000/svg" xmlns:xlink="http://www.w3.org/1999/xlink"><style>:root>svg{display:none}:root>svg:target{display:block}</style><svg viewBox="0 0 16 16" id="facebook" xmlns="http://www.w3.org/2000/svg"><g clip-path="url(#aa)"><path d="M11.722 9l.445-2.896H9.388V4.225c0-.792.388-1.564 1.633-1.564h1.263V.196S11.138 0 10.042 0C7.754 0 6.258 1.387 6.258 3.898v2.207H3.715V9h2.543v7h3.13V9h2.334z"/></g><defs><clipPath id="aa"><path d="M0 0h16v16H0z"/></clipPath></defs></svg><svg viewBox="0 0 16 16" id="insta" xmlns="http://www.w3.org/2000/svg"><g clip-path="url(#ba)"><path fill-rule="evenodd" clip-rule="evenodd" d="M4.976.71C5.758.676 6.007.668 7.999.668c1.992 0 2.242.008 3.023.044.781.035 1.315.16 1.781.34.489.185.932.474 1.299.847.373.366.661.809.845 1.298.182.467.306 1 .342 1.78.036.783.044 1.033.044 3.024 0 1.992-.009 2.241-.044 3.023-.036.78-.16 1.314-.342 1.78-.184.49-.472.933-.845 1.3a3.6 3.6 0 01-1.299.845c-.466.181-1 .305-1.78.341-.782.036-1.032.044-3.024.044s-2.241-.008-3.023-.044c-.78-.035-1.313-.16-1.78-.34a3.597 3.597 0 01-1.3-.846 3.595 3.595 0 01-.845-1.299c-.181-.467-.305-1-.341-1.78C.674 10.241.666 9.991.666 8c0-1.992.009-2.241.044-3.023.035-.78.16-1.314.34-1.78.185-.49.474-.933.847-1.3a3.595 3.595 0 011.298-.846c.467-.18 1-.304 1.78-.34h.001zm5.987 1.32c-.774-.035-1.006-.042-2.964-.042s-2.19.007-2.963.043c-.715.032-1.103.152-1.362.252a2.277 2.277 0 00-.843.548c-.244.237-.43.525-.548.844-.101.258-.22.646-.253 1.362-.035.773-.043 1.005-.043 2.963 0 1.958.008 2.19.043 2.963.033.716.152 1.104.253 1.362.117.318.304.607.548.844.236.243.525.43.843.548.259.1.647.22 1.362.252.773.036 1.005.043 2.963.043 1.959 0 2.19-.007 2.964-.043.715-.032 1.103-.152 1.362-.252.342-.134.586-.292.843-.548.243-.237.43-.526.548-.844.1-.258.22-.646.253-1.362.035-.773.042-1.005.042-2.963 0-1.958-.007-2.19-.042-2.963-.033-.716-.152-1.104-.253-1.362a2.276 2.276 0 00-.548-.844 2.275 2.275 0 00-.843-.548c-.259-.1-.647-.22-1.362-.252zm-3.9 8.23a2.446 2.446 0 101.76-4.563 2.447 2.447 0 00-1.76 4.564zM5.334 5.336a3.77 3.77 0 115.33 5.33 3.77 3.77 0 01-5.33-5.33zm7.27-.543a.891.891 0 10-1.223-1.297.891.891 0 001.224 1.297z"/></g><defs><clipPath id="ba"><path d="M0 0h16v16H0z"/></clipPath></defs></svg><svg viewBox="0 0 16 16" id="linkedin" xmlns="http://www.w3.org/2000/svg"><g clip-path="url(#ca)"><path fill-rule="evenodd" clip-rule="evenodd" d="M.666 1.892A1.225 1.225 0 011.891.667h12.215a1.224 1.224 0 011.227 1.225v12.215a1.224 1.224 0 01-1.226 1.226H1.89a1.226 1.226 0 01-1.225-1.226V1.892zM6.471 6.26h1.986v.997c.287-.573 1.02-1.09 2.122-1.09 2.113 0 2.614 1.143 2.614 3.238v3.881h-2.138V9.881c0-1.193-.287-1.866-1.015-1.866-1.01 0-1.43.726-1.43 1.866v3.404H6.471V6.26zm-3.666 6.935h2.138V6.167H2.805v7.027zm2.444-9.32a1.375 1.375 0 11-2.75.061 1.375 1.375 0 012.75-.06z"/></g><defs><clipPath id="ca"><path d="M0 0h16v16H0z"/></clipPath></defs></svg><svg viewBox="0 -4.5 20 20" id="to-top" xmlns="http://www.w3.org/2000/svg"><path d="M19.708 10.634c.39-.405.39-1.06 0-1.464L11.444.607a1.95 1.95 0 00-2.827 0L.292 9.232c-.385.4-.39 1.048-.01 1.454a.976.976 0 001.425.01l7.617-7.893a.975.975 0 011.414 0l7.557 7.83a.974.974 0 001.413 0" fill-rule="evenodd"/></svg><svg viewBox="0 0 16 16" id="twitter" xmlns="http://www.w3.org/2000/svg"><path d="M15.762 3.291a6.218 6.218 0 01-1.783.489 3.113 3.113 0 001.365-1.719 6.2 6.2 0 01-1.972.754A3.107 3.107 0 008.08 5.648a8.82 8.82 0 01-6.4-3.245 3.104 3.104 0 00-.053 3.027c.24.45.59.835 1.014 1.12a3.098 3.098 0 01-1.406-.39v.04a3.107 3.107 0 002.491 3.046 3.128 3.128 0 01-1.403.053 3.107 3.107 0 002.902 2.156 6.232 6.232 0 01-4.599 1.287 8.783 8.783 0 004.76 1.395c5.713 0 8.837-4.732 8.837-8.836 0-.133-.004-.268-.01-.401a6.312 6.312 0 001.549-1.607l.001-.002z"/></svg></svg>